# File created by Blade
# Date/Time:  Tue Jan 27 20:02:37 2015
# Frame Rate: 120.000 fps
#------------------------------------------------------
:FULLY-SPECIFIED
:DEGREES
3298
root 7.206830 33.973911 4.638463 23.614762 -13.451810 -29.456942
Spine 1.012496 14.849744 8.003628
Head -11.850153 -3.200080 20.629539
LeftShoulder -12.142935 -0.929587 33.537879
LeftArm -4.197104 -11.068104 -79.474161
LeftForeArm -45.235315 -0.000000 130.032921
LeftHand 8.567689 -0.000000 -43.309135
LeftHandThumb1 -26.253704 0.000000 33.147579
RightShoulder -14.256262 -7.629953 -16.952144
RightArm 32.755255 -50.856381 71.847745
RightForeArm -18.640321 0.000000 15.530605
RightHand 16.366491 -0.000000 11.997053
RightHandThumb1 -24.326973 -0.000000 -32.862282
LeftUpLeg -5.572169 18.893519 15.596516
LeftLeg -8.831544 -0.000000 0.000000
LeftFoot -16.652654 19.063095 -15.501002
LeftToeBase 20.454461 -0.000000 -0.000000
RightUpLeg 29.733101 -38.375814 -48.398867
RightLeg 97.356234 -0.000000 -0.000000
RightFoot 30.370463 -25.762044 31.539929
RightToeBase 16.133061 -0.000000 -0.000000
3299
root 7.205625 33.966401 4.631057 23.586405 -13.534027 -29.400358
Spine 1.087744 14.897714 7.973621
Head -11.828997 -3.145124 20.571536
LeftShoulder -12.164424 -0.915836 33.522700
LeftArm -4.263151 -11.221152 -79.364300
LeftForeArm -45.355650 -0.000000 129.991236
LeftHand 8.579131 -0.000000 -43.315281
LeftHandThumb1 -26.253704 0.000000 33.147579
RightShoulder -14.210144 -7.549917 -17.002567
RightArm 32.778990 -50.907726 71.886316
RightForeArm -18.659590 0.000000 15.555875
RightHand 16.430954 -0.000000 11.971911
RightHandThumb1 -24.326973 -0.000000 -32.862282
LeftUpLeg -5.538693 18.805180 15.547676
LeftLeg -8.826752 -0.000000 0.000000
LeftFoot -16.716097 19.187450 -15.536702
LeftToeBase 20.346227 -0.000000 -0.000000
RightUpLeg 29.751295 -38.603675 -48.333052
RightLeg 97.328895 -0.000000 -0.000000
RightFoot 30.450468 -25.749002 31.417556
RightToeBase 15.509088 -0.000000 -0.000000
3300
root 7.207975 33.956330 4.622366 23.568137 -13.646203 -29.299196
Spine 1.146103 14.948006 7.886168
Head -11.812692 -3.108097 20.477478
LeftShoulder -12.199689 -0.896920 33.499151
LeftArm -4.318845 -11.333201 -79.257188
LeftForeArm -45.461025 -0.000000 129.964999
LeftHand 8.658153 0.000000 -43.308795
LeftHandThumb1 -26.253704 0.000000 33.147579
RightShoulder -14.152948 -7.465868 -17.070935
RightArm 32.802728 -50.964259 71.953291
RightForeArm -18.738571 -0.000000 15.563792
RightHand 16.353625 -0.000000 11.893240
RightHandThumb1 -24.326973 -0.000000 -32.862282
LeftUpLeg -5.532454 18.713072 15.429856
LeftLeg -8.801312 -0.000000 0.000000
LeftFoot -16.777273 19.348434 -15.543248
LeftToeBase 20.259482 -0.000000 -0.000000
RightUpLeg 29.709236 -38.820688 -48.292496
RightLeg 97.316292 -0.000000 -0.000000
RightFoot 30.333135 -25.951631 31.669377
RightToeBase 15.927752 -0.000000 -0.000000
3301
root 7.208662 33.948945 4.612044 23.548857 -13.761603 -29.231921
Spine 1.226176 15.102185 7.818946
Head -11.845793 -3.118032 20.432305
LeftShoulder -12.178362 -0.921691 33.494261
LeftArm -4.342425 -11.423708 -79.209166
LeftForeArm -45.544337 -0.000000 129.942521
LeftHand 8.691624 -0.000000 -43.356101
LeftHandThumb1 -26.253704 0.000000 33.147579
RightShoulder -14.178958 -7.395587 -17.103856
RightArm 32.865960 -51.057005 71.943523
RightForeArm -18.694553 -0.000000 15.592280
RightHand 16.334345 -0.000000 11.886298
RightHandThumb1 -24.326973 -0.000000 -32.862282
LeftUpLeg -5.515181 18.629517 15.354345
LeftLeg -8.771947 -0.000000 0.000000
LeftFoot -16.807209 19.533300 -15.480446
LeftToeBase 20.261352 -0.000000 -0.000000
RightUpLeg 29.664669 -39.015774 -48.184644
RightLeg 97.319372 -0.000000 -0.000000
RightFoot 30.220139 -25.888349 31.696783
RightToeBase 16.237981 -0.000000 -0.000000
3302
root 7.210567 33.942365 4.600932 23.538543 -13.896069 -29.161963
Spine 1.301400 15.239734 7.735706
Head -11.877057 -3.114285 20.386365
LeftShoulder -12.190374 -0.907580 33.474168
LeftArm -4.333774 -11.482898 -79.187956
LeftForeArm -45.625769 0.000000 129.941381
LeftHand 8.720377 -0.000000 -43.330712
LeftHandThumb1 -26.253704 0.000000 33.147579
RightShoulder -14.168909 -7.325027 -17.136995
RightArm 32.924781 -51.123573 71.939758
RightForeArm -18.603945 0.000000 15.637744
RightHand 16.397362 -0.000000 12.077084
RightHandThumb1 -24.326973 -0.000000 -32.862282
LeftUpLeg -5.509670 18.605845 15.258442
LeftLeg -8.733883 -0.000000 0.000000
LeftFoot -16.863161 19.641208 -15.520262
LeftToeBase 20.219021 -0.000000 -0.000000
RightUpLeg 29.585869 -39.200570 -48.068960
RightLeg 97.310438 -0.000000 -0.000000
RightFoot 30.183084 -25.858052 31.692956
RightToeBase 16.345207 -0.000000 -0.000000
3303
root 7.213422 33.935390 4.587109 23.547297 -14.059065 -29.082659
Spine 1.358588 15.364428 7.626496
Head -11.888556 -3.092643 20.320762
LeftShoulder -12.224515 -0.880603 33.454800
LeftArm -4.337841 -11.567503 -79.171721
LeftForeArm -45.724330 -0.000000 129.953481
LeftHand 8.680618 -0.000000 -43.346865
LeftHandThumb1 -26.253704 0.000000 33.147579
RightShoulder -14.119631 -7.242844 -17.196841
RightArm 32.947734 -51.160818 72.009540
RightForeArm -18.569706 0.000000 15.682066
RightHand 16.382206 0.000000 12.098377
RightHandThumb1 -24.326973 -0.000000 -32.862282
LeftUpLeg -5.512766 18.606916 15.138286
LeftLeg -8.714156 -0.000000 0.000000
LeftFoot -16.899051 19.776117 -15.505817
LeftToeBase 20.261363 -0.000000 -0.000000
RightUpLeg 29.432751 -39.376019 -47.910560
RightLeg 97.315608 -0.000000 -0.000000
RightFoot 30.204327 -25.861776 31.700856
RightToeBase 16.432071 -0.000000 -0.000000
3304
root 7.217457 33.927664 4.572107 23.550499 -14.238559 -28.961754
Spine 1.416164 15.514680 7.461737
Head -11.916136 -3.090659 20.243253
LeftShoulder -12.227130 -0.873643 33.439197
LeftArm -4.353236 -11.672105 -79.161631
LeftForeArm -45.737258 -0.000000 129.968676
LeftHand 8.716370 -0.000000 -43.359121
LeftHandThumb1 -26.253704 0.000000 33.147579
RightShoulder -14.099187 -7.203614 -17.246800
RightArm 33.055234 -51.219620 72.020595
RightForeArm -18.540851 -0.000000 15.735819
RightHand 16.352386 0.000000 12.092351
RightHandThumb1 -24.326973 -0.000000 -32.862282
LeftUpLeg -5.530137 18.598987 14.971255
LeftLeg -8.671451 -0.000000 0.000000
LeftFoot -16.919089 19.895037 -15.511416
LeftToeBase 20.192054 -0.000000 -0.000000
RightUpLeg 29.325110 -39.569951 -47.856392
RightLeg 97.341342 -0.000000 -0.000000
RightFoot 30.324869 -25.682433 31.421129
RightToeBase 15.567392 -0.000000 -0.000000
3305
root 7.220612 33.919771 4.558855 23.548748 -14.393991 -28.862106
Spine 1.475102 15.649224 7.342515
Head -11.906844 -3.109515 20.139403
LeftShoulder -12.219302 -0.864430 33.407302
LeftArm -4.377288 -11.805016 -79.167205
LeftForeArm -45.809890 -0.000000 130.000646
LeftHand 8.619508 -0.000000 -43.432991
LeftHandThumb1 -26.253704 0.000000 33.147579
RightShoulder -14.065619 -7.128627 -17.340727
RightArm 33.075133 -51.293716 72.107668
RightForeArm -18.511416 0.000000 15.779981
RightHand 16.357048 -0.000000 12.017160
RightHandThumb1 -24.326973 -0.000000 -32.862282
LeftUpLeg -5.524773 18.630261 14.827948
LeftLeg -8.671692 -0.000000 0.000000
LeftFoot -16.930114 19.965179 -15.527954
LeftToeBase 20.175977 -0.000000 -0.000000
RightUpLeg 29.241377 -39.755671 -47.790990
RightLeg 97.324209 -0.000000 -0.000000
RightFoot 30.376559 -25.693226 31.382929
RightToeBase 15.500143 -0.000000 -0.000000
